<svg xmlns="http://www.w3.org/2000/svg" version="1.1" xmlns:xlink="http://www.w3.org/1999/xlink" xmlns:svgjs="http://svgjs.com/svgjs" width="512" height="512" x="0" y="0" viewBox="0 0 64 64" style="enable-background:new 0 0 512 512" xml:space="preserve"><g><g id="Money"><path d="M57.68,42.9a4,4,0,0,0-1.99.534l-9.751,5.629a3.966,3.966,0,0,0-2.259-1.629l-14.92-4a7,7,0,0,0-3.51-.03L20,44.719V43a1,1,0,0,0-1-1H11a1,1,0,0,0-1,1v1H3a1,1,0,0,0-1,1V59a1,1,0,0,0,1,1h7v1a1,1,0,0,0,1,1h8a1,1,0,0,0,1-1V59.618l1.286.643A7.028,7.028,0,0,0,24.417,61H39.393a7,7,0,0,0,3.5-.938l16.8-9.7A4,4,0,0,0,57.68,42.9ZM4,58V46h6V58Zm14,2H12V44h6ZM58.69,48.634l-16.8,9.7a5,5,0,0,1-2.5.67H24.417a5.036,5.036,0,0,1-2.237-.528L20,57.382v-10.6l5.735-1.434a5.009,5.009,0,0,1,2.507.021l14.92,4a2,2,0,1,1-1.036,3.863L30.2,50.034a1,1,0,0,0-.517,1.932l11.925,3.2a4.038,4.038,0,0,0,1.042.138,3.952,3.952,0,0,0,3.965-4.317l10.072-5.815a2.035,2.035,0,0,1,2.726.732A2.009,2.009,0,0,1,58.69,48.634Z" fill="#5e5e5e" data-original="#000000"></path><path d="M59,10H17a3,3,0,0,0-3,3V37a3,3,0,0,0,3,3H59a3,3,0,0,0,3-3V13A3,3,0,0,0,59,10Zm1,27a1,1,0,0,1-1,1H17a1,1,0,0,1-1-1V13a1,1,0,0,1,1-1H59a1,1,0,0,1,1,1Z" fill="#5e5e5e" data-original="#000000"></path><path d="M57,18a3,3,0,0,1-3-3,1,1,0,0,0-1-1H23a1,1,0,0,0-1,1,3,3,0,0,1-3,3,1,1,0,0,0-1,1V31a1,1,0,0,0,1,1,3,3,0,0,1,3,3,1,1,0,0,0,1,1H53a1,1,0,0,0,1-1,3,3,0,0,1,3-3,1,1,0,0,0,1-1V19A1,1,0,0,0,57,18ZM56,30.1A5.013,5.013,0,0,0,52.1,34H23.9A5.013,5.013,0,0,0,20,30.1V19.9A5.013,5.013,0,0,0,23.9,16H52.1A5.013,5.013,0,0,0,56,19.9Z" fill="#5e5e5e" data-original="#000000"></path><path d="M39,31V29.816A2.993,2.993,0,0,0,38,24a1,1,0,1,1,1-1,1,1,0,0,0,2,0,3,3,0,0,0-2-2.816V19a1,1,0,0,0-2,0v1.184A2.993,2.993,0,0,0,38,26a1,1,0,1,1-1,1,1,1,0,0,0-2,0,3,3,0,0,0,2,2.816V31a1,1,0,0,0,2,0Z" fill="#5e5e5e" data-original="#000000"></path><path d="M47,25a9,9,0,1,0-9,9A9.011,9.011,0,0,0,47,25Zm-9,7a7,7,0,1,1,7-7A7.008,7.008,0,0,1,38,32Z" fill="#5e5e5e" data-original="#000000"></path><path d="M52,24H50a1,1,0,0,0,0,2h2a1,1,0,0,0,0-2Z" fill="#5e5e5e" data-original="#000000"></path><path d="M26,24H24a1,1,0,0,0,0,2h2a1,1,0,0,0,0-2Z" fill="#5e5e5e" data-original="#000000"></path></g></g></svg>