<svg xmlns="http://www.w3.org/2000/svg" version="1.1" xmlns:xlink="http://www.w3.org/1999/xlink" xmlns:svgjs="http://svgjs.com/svgjs" width="512" height="512" x="0" y="0" viewBox="0 0 64 64" style="enable-background:new 0 0 512 512" xml:space="preserve" class=""><g><g id="Calendar"><path d="M59,6H52V5a3,3,0,0,0-3-3H47a3,3,0,0,0-3,3V6H20V5a3,3,0,0,0-3-3H15a3,3,0,0,0-3,3V6H5A3,3,0,0,0,2,9V59a3,3,0,0,0,3,3H59a3,3,0,0,0,3-3V9A3,3,0,0,0,59,6ZM46,5a1,1,0,0,1,1-1h2a1,1,0,0,1,1,1v6a1,1,0,0,1-1,1H47a1,1,0,0,1-1-1ZM14,5a1,1,0,0,1,1-1h2a1,1,0,0,1,1,1v6a1,1,0,0,1-1,1H15a1,1,0,0,1-1-1ZM4,9A1,1,0,0,1,5,8h7v3a3,3,0,0,0,3,3h2a3,3,0,0,0,3-3V8H44v3a3,3,0,0,0,3,3h2a3,3,0,0,0,3-3V8h7a1,1,0,0,1,1,1v7H4ZM60,59a1,1,0,0,1-1,1H5a1,1,0,0,1-1-1V18H60Z" fill="#5e5e5e" data-original="#000000" class=""></path><path d="M20,42h4a1,1,0,0,0,1-1V37a1,1,0,0,0-1-1H20a1,1,0,0,0-1,1v4A1,1,0,0,0,20,42Zm1-4h2v2H21Z" fill="#5e5e5e" data-original="#000000" class=""></path><path d="M10,42h4a1,1,0,0,0,1-1V37a1,1,0,0,0-1-1H10a1,1,0,0,0-1,1v4A1,1,0,0,0,10,42Zm1-4h2v2H11Z" fill="#5e5e5e" data-original="#000000" class=""></path><path d="M30,32h4a1,1,0,0,0,1-1V27a1,1,0,0,0-1-1H30a1,1,0,0,0-1,1v4A1,1,0,0,0,30,32Zm1-4h2v2H31Z" fill="#5e5e5e" data-original="#000000" class=""></path><path d="M20,32h4a1,1,0,0,0,1-1V27a1,1,0,0,0-1-1H20a1,1,0,0,0-1,1v4A1,1,0,0,0,20,32Zm1-4h2v2H21Z" fill="#5e5e5e" data-original="#000000" class=""></path><path d="M10,32h4a1,1,0,0,0,1-1V27a1,1,0,0,0-1-1H10a1,1,0,0,0-1,1v4A1,1,0,0,0,10,32Zm1-4h2v2H11Z" fill="#5e5e5e" data-original="#000000" class=""></path><path d="M30,52h4a1,1,0,0,0,1-1V47a1,1,0,0,0-1-1H30a1,1,0,0,0-1,1v4A1,1,0,0,0,30,52Zm1-4h2v2H31Z" fill="#5e5e5e" data-original="#000000" class=""></path><path d="M40,52h4a1,1,0,0,0,1-1V47a1,1,0,0,0-1-1H40a1,1,0,0,0-1,1v4A1,1,0,0,0,40,52Zm1-4h2v2H41Z" fill="#5e5e5e" data-original="#000000" class=""></path><path d="M20,52h4a1,1,0,0,0,1-1V47a1,1,0,0,0-1-1H20a1,1,0,0,0-1,1v4A1,1,0,0,0,20,52Zm1-4h2v2H21Z" fill="#5e5e5e" data-original="#000000" class=""></path><path d="M54,46H50a1,1,0,0,0-1,1v4a1,1,0,0,0,1,1h4a1,1,0,0,0,1-1V47A1,1,0,0,0,54,46Zm-1,4H51V48h2Z" fill="#5e5e5e" data-original="#000000" class=""></path><path d="M10,52h4a1,1,0,0,0,1-1V47a1,1,0,0,0-1-1H10a1,1,0,0,0-1,1v4A1,1,0,0,0,10,52Zm1-4h2v2H11Z" fill="#5e5e5e" data-original="#000000" class=""></path><path d="M42,42H52a3,3,0,0,0,3-3V29a3,3,0,0,0-3-3H42a3,3,0,0,0-3,3V39A3,3,0,0,0,42,42Zm6-14v3.382l-.553-.277a1,1,0,0,0-.894,0L46,31.382V28Zm-7,1a1,1,0,0,1,1-1h2v5a1,1,0,0,0,1.447.9L47,33.118l1.553.777A1,1,0,0,0,50,33V28h2a1,1,0,0,1,1,1V39a1,1,0,0,1-1,1H42a1,1,0,0,1-1-1Z" fill="#5e5e5e" data-original="#000000" class=""></path><path d="M30,42h4a1,1,0,0,0,1-1V37a1,1,0,0,0-1-1H30a1,1,0,0,0-1,1v4A1,1,0,0,0,30,42Zm1-4h2v2H31Z" fill="#5e5e5e" data-original="#000000" class=""></path></g></g></svg>