<svg xmlns="http://www.w3.org/2000/svg" version="1.1" xmlns:xlink="http://www.w3.org/1999/xlink" xmlns:svgjs="http://svgjs.com/svgjs" width="512" height="512" x="0" y="0" viewBox="0 0 64 64" style="enable-background:new 0 0 512 512" xml:space="preserve"><g><g id="Mobile_app" data-name="Mobile app"><path d="M45,2H19a7.008,7.008,0,0,0-7,7V55a7.008,7.008,0,0,0,7,7H45a7.008,7.008,0,0,0,7-7V9A7.008,7.008,0,0,0,45,2ZM19,4H45a5.006,5.006,0,0,1,5,5v1H14V9A5.006,5.006,0,0,1,19,4Zm31,8V50H14V12ZM45,60H19a5.006,5.006,0,0,1-5-5V52H50v3A5.006,5.006,0,0,1,45,60Z" fill="#5e5e5e" data-original="#000000"></path><path d="M32,53a3,3,0,1,0,3,3A3,3,0,0,0,32,53Zm0,4a1,1,0,1,1,1-1A1,1,0,0,1,32,57Z" fill="#5e5e5e" data-original="#000000"></path><path d="M27,8h3a1,1,0,0,0,0-2H27a1,1,0,0,0,0,2Z" fill="#5e5e5e" data-original="#000000"></path><path d="M34,8h2a1,1,0,0,0,0-2H34a1,1,0,0,0,0,2Z" fill="#5e5e5e" data-original="#000000"></path><path d="M26,34H38a3,3,0,0,0,3-3V19a3,3,0,0,0-3-3H26a3,3,0,0,0-3,3V31A3,3,0,0,0,26,34Zm7-16v5.382l-.553-.277a1,1,0,0,0-.894,0L31,23.382V18Zm-8,1a1,1,0,0,1,1-1h3v7a1,1,0,0,0,1.447.895L32,25.118l1.553.777A1,1,0,0,0,35,25V18h3a1,1,0,0,1,1,1V31a1,1,0,0,1-1,1H26a1,1,0,0,1-1-1Z" fill="#5e5e5e" data-original="#000000"></path><path d="M19,40h1a1,1,0,0,0,0-2H19a1,1,0,0,0,0,2Z" fill="#5e5e5e" data-original="#000000"></path><path d="M24,40H45a1,1,0,0,0,0-2H24a1,1,0,0,0,0,2Z" fill="#5e5e5e" data-original="#000000"></path><path d="M19,44h5a1,1,0,0,0,0-2H19a1,1,0,0,0,0,2Z" fill="#5e5e5e" data-original="#000000"></path><path d="M45,42H28a1,1,0,0,0,0,2H45a1,1,0,0,0,0-2Z" fill="#5e5e5e" data-original="#000000"></path><path d="M43,46H19a1,1,0,0,0,0,2H43a1,1,0,0,0,0-2Z" fill="#5e5e5e" data-original="#000000"></path></g></g></svg>