<svg xmlns="http://www.w3.org/2000/svg" version="1.1" xmlns:xlink="http://www.w3.org/1999/xlink" xmlns:svgjs="http://svgjs.com/svgjs" width="512" height="512" x="0" y="0" viewBox="0 0 512 512" style="enable-background:new 0 0 512 512" xml:space="preserve"><g><path d="m396.684 288.815-72.317-19.377a27.574 27.574 0 0 0 -26.9 7.209l-22.042 22.042a3.7 3.7 0 0 1 -4.782.53c-28.473-18.032-39.828-29.387-57.86-57.859a3.7 3.7 0 0 1 .53-4.784l22.042-22.042a27.571 27.571 0 0 0 7.209-26.9l-19.378-72.316a14.836 14.836 0 0 0 -14.31-10.981h-76.355a27.848 27.848 0 0 0 -27.813 26.373 258.522 258.522 0 0 0 17.944 109.844 266.526 266.526 0 0 0 148.8 148.8 258.05 258.05 0 0 0 95.7 18.321q7.047 0 14.145-.376a27.849 27.849 0 0 0 26.372-27.814v-76.359a14.838 14.838 0 0 0 -10.985-14.311zm-13.02 90.665a3.85 3.85 0 0 1 -3.646 3.846c-67.145 3.576-133.223-21.959-181.3-70.04s-73.61-114.164-70.04-181.3a3.851 3.851 0 0 1 3.847-3.646h69.305l17.553 65.508a3.5 3.5 0 0 1 -1 3.72l-22.043 22.037a27.7 27.7 0 0 0 -3.835 34.6c20.112 31.757 33.537 45.181 65.294 65.294a27.694 27.694 0 0 0 34.6-3.835l22.041-22.042a3.5 3.5 0 0 1 3.72-1l65.508 17.553zm-127.664-379.48c-141.159 0-256 114.841-256 256s114.841 256 256 256 256-114.841 256-256-114.841-256-256-256zm0 488c-127.925 0-232-104.075-232-232s104.075-232 232-232 232 104.075 232 232-104.075 232-232 232z" fill="#5e5e5e" data-original="#000000"></path></g></svg>