<svg xmlns="http://www.w3.org/2000/svg" version="1.1" xmlns:xlink="http://www.w3.org/1999/xlink" xmlns:svgjs="http://svgjs.com/svgjs" width="512" height="512" x="0" y="0" viewBox="0 0 512 512" style="enable-background:new 0 0 512 512" xml:space="preserve"><g><g id="_x31_2_x2C__Online_x2C__store_x2C__website_x2C__screen_x2C__shopping"><g id="XMLID_17_"><path id="XMLID_63_" d="m298.5 276c6.755 0 12.25-5.495 12.25-12.25s-5.495-12.25-12.25-12.25-12.25 5.495-12.25 12.25 5.495 12.25 12.25 12.25z" fill="#000000" data-original="#000000"></path><path id="XMLID_106_" d="m72.021 339.68h367.958v-245.731h-367.958zm73.613-202.058h34.119c2.198 0 4.138 1.435 4.781 3.537l11.337 37.036c1.45-.417-6.106-.121 111.463-.216 2.761 0 5 2.239 5 5s-2.239 5-5 5h-108.468l6.585 21.512h122.893c2.761 0 5 2.239 5 5s-2.239 5-5 5h-119.832l6.569 21.459h123.252c2.761 0 5 2.239 5 5s-2.239 5-5 5h-21.651c2.558 3.623 4.067 8.037 4.067 12.8 0 12.269-9.981 22.25-22.25 22.25s-22.25-9.981-22.25-22.25c0-4.763 1.509-9.177 4.067-12.8h-24.135c2.558 3.623 4.067 8.037 4.067 12.8 0 12.269-9.981 22.25-22.25 22.25s-22.25-9.981-22.25-22.25c0-4.763 1.509-9.177 4.067-12.8h-8.434c-2.198 0-4.138-1.435-4.781-3.537l-30.547-99.792h-30.421c-2.761 0-5-2.239-5-5s2.241-4.999 5.002-4.999z" fill="#000000" data-original="#000000"></path><path id="XMLID_121_" d="m238 276c6.755 0 12.25-5.495 12.25-12.25s-5.495-12.25-12.25-12.25-12.25 5.495-12.25 12.25 5.495 12.25 12.25 12.25z" fill="#000000" data-original="#000000"></path><path id="XMLID_124_" d="m454.238 62.532h-396.479c-9.854 0-17.872 8.019-17.872 17.875v272.8c0 9.86 8.017 17.882 17.872 17.882h396.479c9.856 0 17.875-8.021 17.875-17.882v-272.8c0-9.856-8.019-17.875-17.875-17.875zm-4.259 282.148c0 2.762-2.239 5-5 5h-377.958c-2.761 0-5-2.238-5-5v-255.731c0-2.761 2.239-5 5-5h377.958c2.761 0 5 2.239 5 5z" fill="#000000" data-original="#000000"></path><path id="XMLID_125_" d="m370.684 439.468h-79.331v-58.379h-70.721v58.379h-79.331c-2.761 0-5 2.238-5 5s2.239 5 5 5h229.382c2.761 0 5-2.238 5-5s-2.238-5-4.999-5z" fill="#000000" data-original="#000000"></path></g></g></g></svg>