<svg xmlns="http://www.w3.org/2000/svg" version="1.1" xmlns:xlink="http://www.w3.org/1999/xlink" xmlns:svgjs="http://svgjs.com/svgjs" width="512" height="512" x="0" y="0" viewBox="0 0 512 512" style="enable-background:new 0 0 512 512" xml:space="preserve"><g><g id="_x30_5_x2C__logistics_x2C__shipping_x2C__truck_x2C__delivery_x2C__checked"><g id="XMLID_175_"><path id="XMLID_176_" d="m125.132 401.481c-2.272 0-4.122 1.842-4.122 4.106 0 2.274 1.849 4.125 4.122 4.125 2.267 0 4.11-1.851 4.11-4.125 0-2.264-1.844-4.106-4.11-4.106z" fill="#000000" data-original="#000000"></path><path id="XMLID_210_" d="m318.133 67.967h-281.076v234h281.076zm-140.539 211.515c-52.116 0-94.516-42.399-94.516-94.515s42.399-94.516 94.516-94.516 94.516 42.399 94.516 94.516c0 52.116-42.399 94.515-94.516 94.515z" fill="#000000" data-original="#000000"></path><path id="XMLID_226_" d="m125.126 367.162c-21.193 0-38.435 17.241-38.435 38.435s17.242 38.436 38.435 38.436 38.435-17.242 38.435-38.436-17.242-38.435-38.435-38.435zm.006 52.551c-7.787 0-14.122-6.337-14.122-14.125 0-7.778 6.335-14.106 14.122-14.106 7.78 0 14.11 6.328 14.11 14.106 0 7.788-6.33 14.125-14.11 14.125z" fill="#000000" data-original="#000000"></path><path id="XMLID_229_" d="m377.753 367.161c-21.193 0-38.436 17.242-38.436 38.436s17.242 38.437 38.436 38.437c21.193 0 38.435-17.242 38.435-38.437-.001-21.194-17.242-38.436-38.435-38.436zm.004 52.552c-7.787 0-14.122-6.337-14.122-14.125 0-7.778 6.335-14.106 14.122-14.106 7.781 0 14.111 6.328 14.111 14.106 0 7.788-6.33 14.125-14.111 14.125z" fill="#000000" data-original="#000000"></path><path id="XMLID_230_" d="m377.757 401.481c-2.272 0-4.122 1.842-4.122 4.106 0 2.274 1.849 4.125 4.122 4.125 2.267 0 4.111-1.851 4.111-4.125 0-2.264-1.844-4.106-4.111-4.106z" fill="#000000" data-original="#000000"></path><path id="XMLID_231_" d="m351.868 298.231v-99.965h-23.735v108.701c0 2.762-2.239 5-5 5h-286.076v62.23l16.479 16.48h25.516c6.306-19.427 24.571-33.516 46.074-33.516s39.767 14.088 46.073 33.516h160.479c6.306-19.428 24.571-33.517 46.074-33.517 25.019 0 45.667 19.069 48.177 43.436h33.025l15.989-15.116v-82.249h-118.075c-2.761 0-5-2.238-5-5z" fill="#000000" data-original="#000000"></path><path id="XMLID_237_" d="m177.594 100.451c-46.602 0-84.516 37.914-84.516 84.516s37.914 84.515 84.516 84.515 84.516-37.914 84.516-84.515c0-46.602-37.913-84.516-84.516-84.516zm45.218 56.218-56.75 56.75c-1.954 1.953-5.118 1.952-7.071 0l-32.25-32.25c-1.953-1.953-1.953-5.119 0-7.071s5.118-1.952 7.071 0l28.714 28.714 53.214-53.214c1.953-1.952 5.118-1.952 7.071 0 1.954 1.953 1.954 5.119.001 7.071z" fill="#000000" data-original="#000000"></path><path id="XMLID_238_" d="m361.868 198.266v94.965h113.075v-23.157l-61.272-71.808z" fill="#000000" data-original="#000000"></path></g></g></g></svg>