<svg xmlns="http://www.w3.org/2000/svg" version="1.1" xmlns:xlink="http://www.w3.org/1999/xlink" xmlns:svgjs="http://svgjs.com/svgjs" width="512" height="512" x="0" y="0" viewBox="0 0 512 512" style="enable-background:new 0 0 512 512" xml:space="preserve"><g><g id="_x30_8_x2C__Checklist_x2C__list_x2C__todo_list_x2C__check_x2C__tasks"><g id="XMLID_64_"><path id="XMLID_93_" d="m467.507 219.925-20.867-21.172-7.071 7.071-32.834-32.837c-29.195 29.195-125.597 125.596-170.942 170.94-18.382 18.382-18.907 35.097-11.586 43.247.11.115.213.245.572.604 7.908 7.907 25.003 7.833 43.851-11.013l170.94-170.94 17.323 17.628-59.358 59.085c-1.957 1.948-1.964 5.114-.016 7.071s5.113 1.965 7.071.017l62.91-62.622c1.958-1.949 1.962-5.123.007-7.079z" fill="#000000" data-original="#000000"></path><path id="XMLID_130_" d="m149.397 86.138h105.795c10.229 0 18.551-8.322 18.551-18.55v-8.68c0-10.229-8.322-18.55-18.551-18.55h-105.795c-10.229 0-18.55 8.322-18.55 18.55v8.68c0 10.228 8.321 18.55 18.55 18.55z" fill="#000000" data-original="#000000"></path><path id="XMLID_163_" d="m220.801 397.481-18.981 18.982c-1.953 1.953-5.118 1.953-7.071 0-1.953-1.952-1.953-5.118 0-7.07l19.25-19.251c-7.562-12.294-6.054-32.509 14.723-53.286l131.546-131.546v-126.254c0-5.758-5.05-10.808-10.808-10.808h-65.734c-.353 15.438-13.012 27.891-28.534 27.891h-105.795c-15.521 0-28.181-12.452-28.534-27.891h-67.027c-5.858 0-10.807 4.95-10.807 10.808v381.779c0 5.858 4.949 10.808 10.807 10.808h295.624c5.858 0 10.808-4.949 10.808-10.808v-161.567l-84.568 84.567c-21.713 21.712-42.812 22.382-54.899 13.646zm94.174-165.124h-168.667c-2.761 0-5-2.239-5-5s2.239-5 5-5h168.667c2.761 0 5 2.239 5 5s-2.239 5-5 5zm-168.667-71.442h168.667c2.761 0 5 2.239 5 5s-2.239 5-5 5h-168.667c-2.761 0-5-2.239-5-5s2.239-5 5-5zm-78.202-5.76c1.953-1.952 5.118-1.952 7.071 0l16.798 16.798 40.98-40.981c1.953-1.952 5.118-1.952 7.071 0 1.953 1.953 1.953 5.119 0 7.071l-44.515 44.517c-1.954 1.953-5.118 1.952-7.071 0l-20.333-20.333c-1.954-1.953-1.954-5.119-.001-7.072zm27.405 88.847c-1.954 1.953-5.118 1.952-7.071 0l-20.333-20.333c-1.953-1.953-1.953-5.119 0-7.071s5.118-1.952 7.071 0l16.798 16.798 40.98-40.981c1.953-1.952 5.118-1.952 7.071 0 1.953 1.953 1.953 5.119 0 7.071zm45.797 44.798c0-2.762 2.239-5 5-5h74.279c2.761 0 5 2.238 5 5s-2.239 5-5 5h-74.279c-2.761 0-5-2.238-5-5z" fill="#000000" data-original="#000000"></path><path id="XMLID_173_" d="m455.765 156.792c-9.053-9.053-23.783-9.053-32.836 0l-9.124 9.123 32.835 32.838 9.125-9.125c9.053-9.052 9.053-23.783 0-32.836z" fill="#000000" data-original="#000000"></path></g></g></g></svg>