<svg xmlns="http://www.w3.org/2000/svg" version="1.1" xmlns:xlink="http://www.w3.org/1999/xlink" xmlns:svgjs="http://svgjs.com/svgjs" width="512" height="512" x="0" y="0" viewBox="0 0 64 64" style="enable-background:new 0 0 512 512" xml:space="preserve"><g><g><g id="LINE_1008_"><g><path d="m56 33c-.128 0-.258-.025-.384-.078l-48-20c-.51-.212-.75-.798-.538-1.308.211-.509.796-.752 1.308-.538l48 20c.51.212.75.798.538 1.308-.161.385-.533.616-.924.616z" fill="#000000" data-original="#000000"></path></g></g><g id="LINE_1007_"><g><path d="m8 53c-.392 0-.764-.232-.923-.616-.212-.51.028-1.095.538-1.308l48-20c.511-.213 1.096.029 1.308.538.212.51-.028 1.095-.538 1.308l-48 20c-.126.054-.257.078-.385.078z" fill="#000000" data-original="#000000"></path></g></g><g id="LINE_1006_"><g><path d="m8 53c-.219 0-.44-.072-.624-.219-.432-.345-.501-.974-.156-1.405l16-20c.345-.432.975-.501 1.405-.156.432.345.501.974.156 1.405l-16 20c-.198.247-.489.375-.781.375z" fill="#000000" data-original="#000000"></path></g></g><g id="LINE_1005_"><g><path d="m24 33c-.293 0-.584-.128-.781-.375l-16-20c-.345-.431-.275-1.061.156-1.405.43-.345 1.061-.276 1.405.156l16 20c.345.431.275 1.061-.156 1.405-.184.147-.404.219-.624.219z" fill="#000000" data-original="#000000"></path></g></g></g></g></svg>