<svg xmlns="http://www.w3.org/2000/svg" version="1.1" xmlns:xlink="http://www.w3.org/1999/xlink" xmlns:svgjs="http://svgjs.com/svgjs" width="512" height="512" x="0" y="0" viewBox="0 0 480 480" style="enable-background:new 0 0 512 512" xml:space="preserve"><g><path d="m320 464h-304v-368h80v-80h224v80h16v-96h-251.3125l-84.6875 84.6875v395.3125h336v-232h-16zm-292.6875-384 52.6875-52.6875v52.6875zm0 0" fill="#000000" data-original="#000000"></path><path d="m372 96.230469c-5.515625-3.183594-12.070312-4.046875-18.222656-2.398438-6.152344 1.652344-11.398438 5.679688-14.578125 11.199219l-23.464844 40.640625-17.335937-10.015625-32 55.421875 13.859374 8 24-41.597656 3.460938 2-112.519531 194.917969c-5.027344 8.796874-3.988281 19.804687 2.59375 27.503906l-12.722657 22.097656 13.859376 8 12.796874-22.128906c1.398438.316406 2.824219.5 4.257813.554687 8.578125.003907 16.507813-4.570312 20.800781-12l144-249.417969c6.621094-11.476562 2.6875-26.148437-8.785156-32.777343zm-22.929688 23.714843 4-6.929687c2.226563-3.792969 7.09375-5.082031 10.902344-2.882813 3.808594 2.199219 5.128906 7.058594 2.957032 10.882813l-4 6.929687zm5.859376 21.855469-132 228.597657c-2.226563 3.796874-7.09375 5.082031-10.902344 2.882812s-5.128906-7.058594-2.957032-10.882812l132-228.628907zm0 0" fill="#000000" data-original="#000000"></path><path d="m64 400h112v16h-112zm0 0" fill="#000000" data-original="#000000"></path><path d="m64 336h120v16h-120zm0 0" fill="#000000" data-original="#000000"></path><path d="m64 264h160v16h-160zm0 0" fill="#000000" data-original="#000000"></path><path d="m64 200h192v16h-192zm0 0" fill="#000000" data-original="#000000"></path><path d="m64 144h208v16h-208zm0 0" fill="#000000" data-original="#000000"></path></g></svg>