<svg xmlns="http://www.w3.org/2000/svg" version="1.1" xmlns:xlink="http://www.w3.org/1999/xlink" xmlns:svgjs="http://svgjs.com/svgjs" width="512" height="512" x="0" y="0" viewBox="0 0 480 480" style="enable-background:new 0 0 512 512" xml:space="preserve"><g><path d="m72 432h144v16h-144zm0 0" fill="#000000" data-original="#000000"></path><path d="m384 72h-96v-32c-.027344-22.082031-17.917969-39.9726562-40-40h-208c-22.082031.0273438-39.9726562 17.917969-40 40v400c.0273438 22.082031 17.917969 39.972656 40 40h208c22.082031-.027344 39.972656-17.917969 40-40v-160h96c22.082031-.027344 39.972656-17.917969 40-40v-128c-.027344-22.082031-17.917969-39.972656-40-40zm-184-56v16c0 4.417969-3.582031 8-8 8h-96c-4.417969 0-8-3.582031-8-8v-16zm72 424c0 13.253906-10.746094 24-24 24h-208c-13.253906 0-24-10.746094-24-24v-400c0-13.253906 10.746094-24 24-24h32v16c0 13.253906 10.746094 24 24 24h96c13.253906 0 24-10.746094 24-24v-16h32c13.253906 0 24 10.746094 24 24v32h-96c-22.082031.027344-39.972656 17.917969-40 40v128c.027344 22.082031 17.917969 39.972656 40 40h24v59.113281l60-59.113281h12zm136-200c0 13.253906-10.746094 24-24 24h-130.558594l-37.441406 36.886719v-36.886719h-40c-13.253906 0-24-10.746094-24-24v-128c0-13.253906 10.746094-24 24-24h208c13.253906 0 24 10.746094 24 24zm0 0" fill="#000000" data-original="#000000"></path><path d="m184 120h32v16h-32zm0 0" fill="#000000" data-original="#000000"></path><path d="m240 120h136v16h-136zm0 0" fill="#000000" data-original="#000000"></path><path d="m184 168h32v16h-32zm0 0" fill="#000000" data-original="#000000"></path><path d="m240 168h136v16h-136zm0 0" fill="#000000" data-original="#000000"></path><path d="m184 216h32v16h-32zm0 0" fill="#000000" data-original="#000000"></path><path d="m240 216h136v16h-136zm0 0" fill="#000000" data-original="#000000"></path></g></svg>