<svg xmlns="http://www.w3.org/2000/svg" version="1.1" xmlns:xlink="http://www.w3.org/1999/xlink" xmlns:svgjs="http://svgjs.com/svgjs" width="512" height="512" x="0" y="0" viewBox="0 0 480 480" style="enable-background:new 0 0 512 512" xml:space="preserve"><g><path d="m408 320c-19.273438-.570312-38.425781 3.257812-56 11.199219v-43.199219c0-21.007812-36.214844-32-72-32s-72 10.992188-72 32v11.199219c-17.574219-7.941407-36.726562-11.769531-56-11.199219-35.785156 0-72 10.992188-72 32v128c0 21.007812 36.214844 32 72 32 25.601562 0 51.382812-5.664062 64-16.574219 12.617188 10.910157 38.398438 16.574219 64 16.574219s51.382812-5.664062 64-16.574219c12.617188 10.910157 38.398438 16.574219 64 16.574219 35.785156 0 72-10.992188 72-32v-96c0-21.007812-36.214844-32-72-32zm-184 84.800781c17.574219 7.941407 36.726562 11.769531 56 11.199219 19.273438.570312 38.425781-3.257812 56-11.199219v11.199219c0 4.640625-19.625 16-56 16s-56-11.359375-56-16zm56-4.800781c-36.375 0-56-11.359375-56-16v-11.199219c17.574219 7.941407 36.726562 11.769531 56 11.199219 19.273438.570312 38.425781-3.257812 56-11.199219v11.199219c0 4.640625-19.625 16-56 16zm0-32c-36.375 0-56-11.359375-56-16v-11.199219c17.574219 7.941407 36.726562 11.769531 56 11.199219 19.273438.570312 38.425781-3.257812 56-11.199219v11.199219c0 4.640625-19.625 16-56 16zm0-32c-36.375 0-56-11.359375-56-16v-11.199219c17.574219 7.941407 36.726562 11.769531 56 11.199219 19.273438.570312 38.425781-3.257812 56-11.199219v11.199219c0 4.640625-19.625 16-56 16zm0-64c36.375 0 56 11.359375 56 16s-19.625 16-56 16-56-11.359375-56-16 19.625-16 56-16zm-128 32c36.375 0 56 11.359375 56 16s-19.625 16-56 16-56-11.359375-56-16 19.625-16 56-16zm-56 36.800781c17.574219 7.941407 36.726562 11.769531 56 11.199219 19.273438.570312 38.425781-3.257812 56-11.199219v11.199219c0 4.640625-19.625 16-56 16s-56-11.359375-56-16zm0 32c17.574219 7.941407 36.726562 11.769531 56 11.199219 19.273438.570312 38.425781-3.257812 56-11.199219v11.199219c0 4.640625-19.625 16-56 16s-56-11.359375-56-16zm0 32c17.574219 7.941407 36.726562 11.769531 56 11.199219 19.273438.570312 38.425781-3.257812 56-11.199219v11.199219c0 4.640625-19.625 16-56 16s-56-11.359375-56-16zm56 59.199219c-36.375 0-56-11.359375-56-16v-11.199219c17.574219 7.941407 36.726562 11.769531 56 11.199219 19.273438.570312 38.425781-3.257812 56-11.199219v11.199219c0 4.640625-19.625 16-56 16zm128 0c-36.375 0-56-11.359375-56-16v-11.199219c17.574219 7.941407 36.726562 11.769531 56 11.199219 19.273438.570312 38.425781-3.257812 56-11.199219v11.199219c0 4.640625-19.625 16-56 16zm128 0c-36.375 0-56-11.359375-56-16v-11.199219c17.574219 7.941407 36.726562 11.769531 56 11.199219 19.273438.570312 38.425781-3.257812 56-11.199219v11.199219c0 4.640625-19.625 16-56 16zm0-32c-36.375 0-56-11.359375-56-16v-11.199219c17.574219 7.941407 36.726562 11.769531 56 11.199219 19.273438.570312 38.425781-3.257812 56-11.199219v11.199219c0 4.640625-19.625 16-56 16zm0-32c-36.375 0-56-11.359375-56-16v-11.199219c17.574219 7.941407 36.726562 11.769531 56 11.199219 19.273438.570312 38.425781-3.257812 56-11.199219v11.199219c0 4.640625-19.625 16-56 16zm0-32c-36.375 0-56-11.359375-56-16s19.625-16 56-16 56 11.359375 56 16-19.625 16-56 16zm0 0" fill="#000000" data-original="#000000"></path><path d="m360 40v-8h-304v8c0 8.835938-7.164062 16-16 16h-8v96h8c8.835938 0 16 7.164062 16 16v8h304v-8c0-8.835938 7.164062-16 16-16h8v-96h-8c-8.835938 0-16-7.164062-16-16zm8 97.015625c-11.257812 2.933594-20.050781 11.726563-22.984375 22.984375h-274.03125c-2.933594-11.257812-11.726563-20.050781-22.984375-22.984375v-66.03125c11.257812-2.933594 20.050781-11.726563 22.984375-22.984375h274.03125c2.933594 11.257812 11.726563 20.050781 22.984375 22.984375zm0 0" fill="#000000" data-original="#000000"></path><path d="m448 56v-32h-32v-24h-416v208h40v32h32v32h120v-16h-104v-16h360v-168h16v184h-96v16h112v-216zm-432-40h384v176h-384zm416 208h-376v-16h360v-168h16zm0 0" fill="#000000" data-original="#000000"></path><path d="m205.496094 64.078125c-21.539063 1.367187-38.113282 19.574219-37.453125 41.148437.660156 21.570313 18.316406 38.730469 39.902343 38.773438.855469 0 1.703126 0 2.558594-.078125 14.355469-.777344 27.1875-9.191406 33.621094-22.046875 6.429688-12.855469 5.46875-28.171875-2.519531-40.125-7.984375-11.949219-21.773438-18.695312-36.109375-17.671875zm20.503906 55.792969c-7.183594 8.148437-18.945312 10.457031-28.675781 5.625-9.730469-4.828125-15.003907-15.59375-12.851563-26.242188 2.148438-10.648437 11.179688-18.527344 22.023438-19.207031.511718-.03125 1.011718-.046875 1.503906-.046875 9.425781.011719 17.972656 5.542969 21.847656 14.140625 3.871094 8.59375 2.355469 18.660156-3.878906 25.730469zm0 0" fill="#000000" data-original="#000000"></path><path d="m280 96h48v16h-48zm0 0" fill="#000000" data-original="#000000"></path><path d="m88 96h48v16h-48zm0 0" fill="#000000" data-original="#000000"></path></g></svg>