<svg width="635" height="335" viewBox="0 0 635 335" fill="none" xmlns="http://www.w3.org/2000/svg">
<path d="M38.5602 149.447C43.3772 146.618 48.7176 145.471 53.8998 145.829L53.9504 145.818C70.9452 146.825 87.143 156.016 96.4127 171.799C101.186 179.927 103.535 188.808 103.684 197.605C92.9089 189.559 77.9321 188.263 65.6091 195.501C52.892 202.97 36.5273 198.716 29.0579 185.998C21.5886 173.281 25.8431 156.917 38.5602 149.447Z" fill="#5E5E5E"/>
<path fill-rule="evenodd" clip-rule="evenodd" d="M128.339 211.373C130.606 211.689 132.855 210.687 134.137 208.792C145.636 191.785 166.572 182.419 187.948 186.667L188.955 181.6L187.948 186.667C215.788 192.2 242.841 174.116 248.374 146.277C253.907 118.437 235.823 91.3835 207.984 85.8506C197.614 83.7898 187.337 85.0082 178.248 88.7928C178.088 88.8439 177.93 88.9019 177.775 88.9664C149.284 100.813 127.009 126.208 120.538 158.77C117.208 175.527 118.477 192.146 123.467 207.307C124.183 209.481 126.073 211.058 128.339 211.373ZM132.057 192.557C130.197 182.445 130.18 171.818 132.308 161.109L132.308 161.109C137.936 132.789 157.223 110.658 181.985 100.213C182.168 100.155 182.347 100.088 182.524 100.013C189.567 97.0033 197.553 96.0124 205.645 97.6204C226.984 101.861 240.845 122.598 236.604 143.938C232.363 165.277 211.626 179.138 190.287 174.897C168.335 170.535 146.783 177.863 132.057 192.557Z" fill="#5E5E5E"/>
<path fill-rule="evenodd" clip-rule="evenodd" d="M0.902252 296.686C5.92184 321.943 30.4655 338.348 55.7222 333.329L55.7223 333.329C80.8622 328.332 97.0027 305.653 94.6816 280.377C92.3633 255.132 99.6223 239.428 111.936 230.971C113.816 229.679 114.802 227.434 114.479 225.176C114.157 222.918 112.582 221.039 110.416 220.326C96.7467 215.826 81.7638 214.683 66.6575 217.685L67.827 223.57L66.6575 217.685C37.3014 223.519 14.4064 243.602 3.72712 269.285C3.66668 269.431 3.61205 269.578 3.5633 269.728C0.136637 277.969 -0.965757 287.286 0.902248 296.686L0.902252 296.686ZM53.3833 321.559C34.6266 325.286 16.3997 313.103 12.6721 294.347L6.78716 295.516L12.6721 294.347C11.2585 287.234 12.1297 280.214 14.7746 274.024C14.8455 273.858 14.9088 273.689 14.9644 273.518C24.2382 251.553 43.8735 234.448 68.9966 229.455C78.2143 227.623 87.3634 227.582 96.0927 229.087C85.373 241.272 80.6704 259.026 82.7319 281.474C84.5142 300.883 72.2566 317.808 53.3833 321.559ZM54.5527 327.444L53.3833 321.559L54.5527 327.444Z" fill="#5E5E5E"/>
<path fill-rule="evenodd" clip-rule="evenodd" d="M161.141 321.012C178.266 338.137 206.031 338.137 223.156 321.012C240.281 303.887 240.281 276.122 223.156 258.997C210.523 246.364 188.762 239.238 171.316 235.211C162.396 233.152 154.219 231.822 148.275 231.007C145.299 230.598 142.873 230.317 141.182 230.138C140.336 230.048 139.673 229.983 139.216 229.941C138.988 229.919 138.811 229.904 138.689 229.893L138.546 229.881L138.506 229.877L138.489 229.876C138.488 229.876 138.487 229.876 138 235.856C132.02 236.343 132.02 236.344 132.02 236.345L132.021 236.362L132.025 236.402L132.037 236.545C132.048 236.667 132.063 236.844 132.085 237.072C132.127 237.529 132.192 238.192 132.282 239.038C132.461 240.729 132.742 243.155 133.151 246.131C133.966 252.075 135.296 260.252 137.355 269.172C141.382 286.618 148.508 308.379 161.141 321.012ZM138 235.856L132.02 236.343C131.877 234.588 132.512 232.858 133.757 231.613C135.002 230.368 136.732 229.733 138.487 229.876L138 235.856ZM144.792 242.648C145.38 242.724 145.998 242.806 146.643 242.895C152.333 243.676 160.139 244.947 168.617 246.904C185.968 250.909 204.663 257.475 214.671 267.483C227.11 279.921 227.11 300.088 214.671 312.527C202.232 324.966 182.065 324.966 169.626 312.527C159.619 302.519 153.053 283.824 149.048 266.473C147.091 257.995 145.82 250.189 145.039 244.499C144.951 243.854 144.868 243.236 144.792 242.648Z" fill="#5E5E5E"/>
<path d="M308.792 0C313.144 0 316.899 0.127998 320.056 0.383995C323.213 0.639997 326.115 1.024 328.76 1.536C331.405 1.96266 334.051 2.55999 336.696 3.328L333.88 20.864C330.893 20.6933 328.12 20.608 325.56 20.608C323 20.5227 320.312 20.48 317.496 20.48C314.765 20.3947 311.48 20.352 307.64 20.352C304.909 20.352 302.605 20.6933 300.728 21.376C298.851 21.9733 297.229 23.168 295.864 24.96C294.584 26.752 293.475 29.3973 292.536 32.896C291.597 36.3947 290.787 40.96 290.104 46.592C289.165 53.0773 288.739 58.112 288.824 61.696C288.995 65.1947 289.891 67.6267 291.512 68.992C293.219 70.3573 295.907 71.04 299.576 71.04C305.805 71.04 310.968 70.9547 315.064 70.784C319.16 70.528 323.213 70.2293 327.224 69.888L328.12 87.552C323.597 88.9173 319.117 89.8987 314.68 90.496C310.243 91.0933 304.867 91.392 298.552 91.392C289.08 91.392 281.613 89.8987 276.152 86.912C270.691 83.9253 267.064 79.0187 265.272 72.192C263.48 65.3653 263.395 56.2347 265.016 44.8C266.296 36.0107 267.96 28.7147 270.008 22.912C272.056 17.1093 274.744 12.544 278.072 9.216C281.4 5.888 285.581 3.54133 290.616 2.17599C295.651 0.725332 301.709 0 308.792 0Z" fill="#5E5E5E"/>
<path d="M384.789 0.512001C392.384 0.512001 398.485 1.23733 403.093 2.688C407.786 4.05333 411.029 6.48533 412.821 9.984C414.698 13.3973 415.21 18.2187 414.357 24.448C413.504 30.5067 411.754 35.1147 409.109 38.272C406.549 41.344 402.282 43.136 396.309 43.648L396.181 44.416C403.093 45.0133 407.701 47.4027 410.005 51.584C412.394 55.7653 413.077 61.4827 412.053 68.736C411.285 74.624 409.621 79.1893 407.061 82.432C404.586 85.6747 401.045 87.8933 396.437 89.088C391.914 90.2827 386.026 90.88 378.773 90.88C372.458 90.88 366.997 90.8373 362.389 90.752C357.781 90.752 353.557 90.6667 349.717 90.496C345.877 90.3253 341.952 90.112 337.941 89.856L341.397 73.472C343.616 73.5573 347.712 73.6427 353.685 73.728C359.658 73.8133 366.528 73.856 374.293 73.856C377.536 73.856 380.053 73.5573 381.845 72.96C383.722 72.2773 385.13 71.1253 386.069 69.504C387.008 67.7973 387.69 65.3653 388.117 62.208C388.544 59.3067 388.544 57.1307 388.117 55.68C387.776 54.144 386.88 53.0773 385.429 52.48C384.064 51.8827 381.973 51.584 379.157 51.584H345.109L347.157 36.608H379.669C382.4 36.608 384.533 36.352 386.069 35.84C387.605 35.2427 388.757 34.176 389.525 32.64C390.378 31.104 391.018 28.8853 391.445 25.984C391.701 23.7653 391.658 22.0587 391.317 20.864C390.976 19.6693 390.208 18.816 389.013 18.304C387.904 17.792 386.197 17.536 383.893 17.536C378.688 17.536 374.122 17.536 370.197 17.536C366.272 17.536 362.773 17.5787 359.701 17.664C356.629 17.664 353.642 17.7493 350.741 17.92L350.357 1.536C353.856 1.19467 357.269 0.981333 360.597 0.895996C364.01 0.725332 367.637 0.639999 371.477 0.639999C375.402 0.554667 379.84 0.512001 384.789 0.512001ZM373.781 1.536L361.365 89.856H337.941L350.357 1.536H373.781Z" fill="#5E5E5E"/>
<path d="M457.668 1.536L445.252 89.856H421.444L433.86 1.536H457.668Z" fill="#5E5E5E"/>
<path d="M516.609 1.536L504.193 89.856H480.257L492.673 1.536H516.609ZM541.953 1.536L539.393 19.84H464.769L467.329 1.536H541.953Z" fill="#5E5E5E"/>
<path d="M324.664 121.512C332.259 121.512 338.36 122.237 342.968 123.688C347.661 125.053 350.904 127.485 352.696 130.984C354.573 134.397 355.085 139.219 354.232 145.448C353.379 151.507 351.629 156.115 348.984 159.272C346.424 162.344 342.157 164.136 336.184 164.648L336.056 165.416C342.968 166.013 347.576 168.403 349.88 172.584C352.269 176.765 352.952 182.483 351.928 189.736C351.16 195.624 349.496 200.189 346.936 203.432C344.461 206.675 340.92 208.893 336.312 210.088C331.789 211.283 325.901 211.88 318.648 211.88C312.333 211.88 306.872 211.837 302.264 211.752C297.656 211.752 293.432 211.667 289.592 211.496C285.752 211.325 281.827 211.112 277.816 210.856L281.272 194.472C283.491 194.557 287.587 194.643 293.56 194.728C299.533 194.813 306.403 194.856 314.168 194.856C317.411 194.856 319.928 194.557 321.72 193.96C323.597 193.277 325.005 192.125 325.944 190.504C326.883 188.797 327.565 186.365 327.992 183.208C328.419 180.307 328.419 178.131 327.992 176.68C327.651 175.144 326.755 174.077 325.304 173.48C323.939 172.883 321.848 172.584 319.032 172.584H284.984L287.032 157.608H319.544C322.275 157.608 324.408 157.352 325.944 156.84C327.48 156.243 328.632 155.176 329.4 153.64C330.253 152.104 330.893 149.885 331.32 146.984C331.576 144.765 331.533 143.059 331.192 141.864C330.851 140.669 330.083 139.816 328.888 139.304C327.779 138.792 326.072 138.536 323.768 138.536C318.563 138.536 313.997 138.536 310.072 138.536C306.147 138.536 302.648 138.579 299.576 138.664C296.504 138.664 293.517 138.749 290.616 138.92L290.232 122.536C293.731 122.195 297.144 121.981 300.472 121.896C303.885 121.725 307.512 121.64 311.352 121.64C315.277 121.555 319.715 121.512 324.664 121.512ZM313.656 122.536L301.24 210.856H277.816L290.232 122.536H313.656Z" fill="#5E5E5E"/>
<path d="M408.167 120.744C417.468 120.744 424.978 122.152 430.695 124.968C436.412 127.784 440.295 132.563 442.343 139.304C444.391 146.045 444.604 155.475 442.983 167.592C441.788 176.552 440.082 183.976 437.863 189.864C435.644 195.667 432.786 200.232 429.287 203.56C425.874 206.888 421.65 209.235 416.615 210.6C411.58 211.965 405.65 212.648 398.823 212.648C389.18 212.648 381.543 211.24 375.911 208.424C370.279 205.608 366.524 200.829 364.647 194.088C362.855 187.261 362.77 177.832 364.391 165.8C365.671 157.011 367.378 149.715 369.511 143.912C371.73 138.024 374.546 133.416 377.959 130.088C381.372 126.675 385.554 124.285 390.503 122.92C395.452 121.469 401.34 120.744 408.167 120.744ZM407.783 139.048C404.028 139.048 400.999 139.816 398.695 141.352C396.476 142.888 394.684 145.704 393.319 149.8C392.039 153.896 390.802 159.827 389.607 167.592C388.498 174.845 388.028 180.392 388.199 184.232C388.455 188.072 389.479 190.717 391.271 192.168C393.063 193.619 395.794 194.344 399.463 194.344C403.303 194.344 406.332 193.576 408.551 192.04C410.77 190.504 412.562 187.688 413.927 183.592C415.292 179.411 416.572 173.48 417.767 165.8C418.876 158.547 419.303 153 419.047 149.16C418.791 145.32 417.767 142.675 415.975 141.224C414.183 139.773 411.452 139.048 407.783 139.048Z" fill="#5E5E5E"/>
<path d="M535.645 122.536L523.229 210.856H499.293L509.533 138.664H502.365C500.061 138.664 498.184 139.219 496.733 140.328C495.282 141.437 494.216 143.443 493.533 146.344C491.826 153.768 489.949 161.064 487.901 168.232C485.853 175.4 483.378 182.397 480.477 189.224C477.576 195.965 473.864 202.536 469.341 208.936L442.973 210.344C448.093 202.152 452.317 194.259 455.645 186.664C459.058 179.069 461.917 171.517 464.221 164.008C466.61 156.413 468.829 148.605 470.877 140.584C472.413 134.525 475.144 130.003 479.069 127.016C482.994 124.029 488.072 122.536 494.301 122.536H535.645ZM460.253 209.96L455.645 230.184H437.981L440.797 209.96H460.253ZM537.309 194.728L535.261 210.856H440.669L442.717 194.728H537.309ZM535.389 209.96L532.573 230.184H515.037L516.061 209.96H535.389Z" fill="#5E5E5E"/>
<path d="M634.026 122.536L621.61 210.856H598.826L605.226 166.312C605.567 163.923 605.994 161.533 606.506 159.144C607.103 156.669 607.786 154.237 608.554 151.848H607.786C606.762 153.981 605.695 156.157 604.586 158.376C603.477 160.595 602.239 162.643 600.874 164.52L568.618 210.856H545.194L557.61 122.536H580.65L574.634 165.416C574.293 168.061 573.781 170.664 573.098 173.224C572.415 175.784 571.647 178.472 570.794 181.288H571.69C572.885 178.813 574.079 176.424 575.274 174.12C576.554 171.816 577.834 169.725 579.114 167.848L610.858 122.536H634.026Z" fill="#5E5E5E"/>
</svg>
